# xmcd CD database file
#
# Track frame offsets:
#	150
#	69172
#	142876
#	212197
#
# Disc length: 3741 seconds
#
# Revision: 0
# Processed by: cddbd v1.5.2PL0 Copyright (c) Steve Scherf et al.
# Submitted via: CDex 1.51
#
DISCID=330e9b04
DTITLE=Peter Kater - Wind, Rock, Sea and Flame - Aloha Au Ia 'Oe
DYEAR=2010
DGENRE=New Age
TTITLE0=Sea
TTITLE1=Flame
TTITLE2=Rock
TTITLE3=Wind
EXTD=YEAR: 2010
EXTT0=
EXTT1=
EXTT2=
EXTT3=
PLAYORDER=
